<?xml version="1.0" encoding="utf-8"?>
<!-- Generator: Adobe Illustrator 25.2.1, SVG Export Plug-In . SVG Version: 6.00 Build 0)  -->
<svg version="1.1" id="Layer_1" xmlns="http://www.w3.org/2000/svg" xmlns:xlink="http://www.w3.org/1999/xlink" x="0px" y="0px"
	 viewBox="0 0 58.8 43" style="enable-background:new 0 0 58.8 43;" xml:space="preserve">
<style type="text/css">
	.st0{fill:#202944;}
	.st1{fill:#EF3829;}
</style>
<g>
	<path id="fullLogo_7_" class="st0" d="M29.2,42.9c-0.2,0-0.3,0-0.4-0.1c-0.3-0.2-0.4-0.4-0.4-0.8l0-4.3L26,36.3l-2.4,1.4l0,4.3
		c0,0.3-0.2,0.6-0.4,0.8s-0.6,0.2-0.9,0c-2.3-1.3-3.7-3.8-3.7-6.4c0-2.6,1.3-4.9,3.5-6.3V4.1c0-2.2,1.8-4,4-4s4,1.8,4,4v26
		c2.1,1.4,3.4,3.7,3.4,6.3c0,2.6-1.4,5.1-3.7,6.4C29.5,42.9,29.4,42.9,29.2,42.9z M26,34.4c0.2,0,0.3,0,0.4,0.1l3.3,1.9
		c0.3,0.2,0.4,0.4,0.4,0.8l0,3c1-1,1.5-2.4,1.5-3.9c0-2.1-1.1-4-3-5c-0.3-0.2-0.5-0.4-0.5-0.8V4.1c0-1.2-1-2.2-2.2-2.2
		s-2.2,1-2.2,2.2v26.4c0,0.3-0.2,0.6-0.5,0.8c-1.9,1-3,2.9-3,5c0,1.5,0.6,2.8,1.5,3.9l0-3c0-0.3,0.2-0.6,0.4-0.8l3.3-1.9
		C25.7,34.4,25.8,34.4,26,34.4z"/>
	<path id="fullLogo_6_" class="st1" d="M58.7,12.8c-0.3-0.8-1-1.4-1.9-1.4H46.5V6.3h10.1c0.5,0,0.9-0.4,0.9-0.9
		c0-2.9-2.5-5.3-5.5-5.3h-8.2c-2.1,0-3.8,1.7-3.8,3.7v7.6h-1c-0.5,0-0.9,0.4-0.9,0.9v3.9c0,1.5,1.3,2.7,2.8,2.7h2.4c1.6,0,3,1.3,3,3
		v17.1c0,2.2,1.8,4,4,4s4-1.8,4-3.9l0.2-18c0-2.3,1.2-4.5,3.1-5.8L58,15C58.7,14.5,59,13.6,58.7,12.8z M41.8,3.9c0-1.1,0.9-2,2.1-2
		H52c1.7,0,3.2,1.2,3.6,2.7h-10c-0.5,0-0.9,0.4-0.9,0.9v6h-3V3.9z M57,13.5l-0.4,0.3c-2.4,1.7-3.8,4.4-3.8,7.3l-0.2,18
		c0,1.2-1,2.2-2.2,2.2s-2.2-1-2.2-2.2V21.9c0-2.6-2.1-4.7-4.7-4.7H41c-0.6,0-1.1-0.4-1.1-1v-3h16.9c0,0,0.1,0,0.2,0.1
		C57.1,13.5,57,13.5,57,13.5z"/>
	<a xlink:href="89.45542" >
		<path id="fullLogo_5_" class="st0" d="M6,22.4V34c0,0.2,0.1,0.4,0.2,0.6l1.1,1.4l-1.4,5.4H4l-1.4-5.4l1.1-1.4
			c0.1-0.2,0.2-0.4,0.2-0.6V22.4H2.2c0,0-0.1,0-0.1,0v11.3l-1.2,1.5c-0.2,0.2-0.2,0.5-0.2,0.8l1.7,6.4C2.6,42.8,2.9,43,3.3,43h3.2
			c0.4,0,0.7-0.3,0.8-0.6l1.7-6.4c0.1-0.3,0-0.6-0.2-0.8l-1.2-1.5V22.4c0,0-0.1,0-0.1,0H6z"/>
	</a>
	<path id="fullLogo_4_" class="st1" d="M9.8,11.1V4.9C9.8,2.2,7.6,0,4.9,0S0,2.2,0,4.9v6.2c0,1,0.3,2,0.9,2.8c0.8,1.1,0.7,2.5,0,3.5
		C0.3,18.2,0,19.2,0,20.2c0,1.2,0.9,2.1,2.1,2.2c0,0,0.1,0,0.1,0h1.6H6h1.6c0,0,0.1,0,0.1,0c1.2-0.1,2.1-1,2.1-2.2
		c0-1-0.3-2-0.9-2.8c-0.8-1.1-0.8-2.5,0-3.6C9.5,13,9.8,12.1,9.8,11.1z M8.1,11.1c0,0.6-0.2,1.2-0.6,1.8c-1.2,1.7-1.2,3.9,0,5.6
		c0.4,0.5,0.6,1.1,0.6,1.8c0,0.3-0.2,0.5-0.5,0.5H2.2c-0.3,0-0.5-0.2-0.5-0.5c0-0.6,0.2-1.3,0.6-1.8c1.2-1.7,1.2-3.9,0-5.6
		c-0.4-0.5-0.6-1.1-0.6-1.8V4.9c0-1.7,1.4-3.2,3.2-3.2s3.2,1.4,3.2,3.2V11.1z"/>
</g>
</svg>
