<?xml version="1.0" encoding="utf-8"?>
<!-- Generator: Adobe Illustrator 25.2.1, SVG Export Plug-In . SVG Version: 6.00 Build 0)  -->
<svg version="1.1" id="Layer_1" xmlns="http://www.w3.org/2000/svg" xmlns:xlink="http://www.w3.org/1999/xlink" x="0px" y="0px"
	 viewBox="0 0 86.4 47.2" style="enable-background:new 0 0 86.4 47.2;" xml:space="preserve">
<style type="text/css">
	.st0{fill:#202944;}
	.st1{fill:#EF3829;}
</style>
<g>
	<path id="fullLogo_9_" class="st0" d="M81.9,40c0,0-2,0-3.1-0.1c-1,0-1.8-0.8-2-1.8c-0.6-4.7-4.7-8.3-9.5-8.3c-4.9,0-9,3.7-9.5,8.6
		C57.7,39.4,57,40,56.1,40H31.3c-0.9,0-1.6-0.7-1.7-1.6c-0.5-4.9-4.6-8.6-9.5-8.6c-4.9,0-9,3.7-9.5,8.6C10.4,39.4,9.7,40,8.8,40H4
		c-2.2,0-4-1.8-4-4V4.5C0,2,2,0,4.5,0h54.6c1.4,0,2.7,0.6,3.6,1.8L72.6,14l12.3,8.5c0,0,0.1,0.1,0.1,0.1c0.9,0.9,1.4,2,1.4,3.2v9.6
		C86.4,38,84.4,40,81.9,40z M20,28.1c5.9,0,10.7,4.4,11.3,10.2l24.8,0c0.6-5.8,5.4-10.2,11.2-10.2c5.7,0,10.5,4.2,11.2,9.8
		c0,0.2,0.1,0.3,0.3,0.3c1.1,0,3.1,0.1,3.1,0.1c1.5,0,2.8-1.3,2.8-2.8v-9.6c0-0.7-0.3-1.4-0.8-1.9l-12.4-8.6c-0.1,0-0.1-0.1-0.2-0.2
		l-10-12.4c-0.5-0.7-1.3-1.1-2.2-1.1H4.5C3,1.8,1.8,3,1.8,4.5V36c0,1.3,1,2.3,2.3,2.3h4.8C9.3,32.5,14.2,28.1,20,28.1z"/>
	<path id="fullLogo_8_" class="st0" d="M67.3,47.2c-4.3,0-7.8-3.5-7.8-7.8c0-0.1,0-0.2,0-0.3c0.1-4.2,3.6-7.5,7.8-7.5
		c4.2,0,7.7,3.3,7.8,7.5c0,0.1,0,0.2,0,0.2C75.1,43.7,71.6,47.2,67.3,47.2z M67.3,33.3c-3.3,0-5.9,2.6-6.1,5.9c0,0.1,0,0.1,0,0.2
		c0,3.3,2.7,6.1,6.1,6.1c3.3,0,6.1-2.7,6.1-6.1l0-0.2C73.3,35.9,70.6,33.3,67.3,33.3z"/>
	<path id="fullLogo_7_" class="st0" d="M20,47.2c-4.3,0-7.8-3.5-7.8-7.8c0-0.1,0-0.2,0-0.3c0.1-4.2,3.6-7.5,7.8-7.5s7.7,3.3,7.8,7.5
		c0,0.1,0,0.2,0,0.3C27.9,43.7,24.3,47.2,20,47.2z M20,33.3c-3.3,0-5.9,2.6-6.1,5.9l0,0.2c0,3.4,2.7,6.1,6.1,6.1s6.1-2.7,6.1-6.1
		c0-0.1,0-0.1,0-0.2C26,35.9,23.3,33.3,20,33.3z"/>
	<a xlink:href="89.45542" >
		<path id="fullLogo_6_" class="st0" d="M59.1,12.7l-7.8-2.1c-0.3-0.1-0.6,0-0.8,0.2l-1.8,1.5h-14V14H49c0.2,0,0.4-0.1,0.6-0.2
			l1.7-1.4l6.7,1.8v2.5l-6.7,1.8l-1.7-1.4c-0.2-0.1-0.4-0.2-0.6-0.2H34.7v1.8h14l1.8,1.5c0.2,0.1,0.4,0.2,0.6,0.2c0.1,0,0.2,0,0.2,0
			l7.8-2.1c0.4-0.1,0.6-0.4,0.6-0.8v-3.9C59.8,13.1,59.5,12.8,59.1,12.7z"/>
	</a>
	<path id="fullLogo_5_" class="st1" d="M32.2,9.7c-1.2,0-2.3,0.4-3.3,1c-1.4,1-3.2,1-4.5,0c-1-0.7-2.1-1-3.3-1h-7.5
		c-3.2,0-5.8,2.6-5.8,5.8c0,3.2,2.6,5.8,5.8,5.8h7.5c1.2,0,2.3-0.4,3.3-1.1c1.4-1,3.2-1,4.5,0c1,0.7,2.1,1,3.3,1
		c1.4,0,2.5-1.1,2.5-2.5v0v-1.8v-3v-1.8v0C34.7,10.8,33.6,9.7,32.2,9.7z M33,18.7c0,0.4-0.3,0.8-0.8,0.8c-0.8,0-1.6-0.3-2.3-0.7
		c-1-0.7-2.1-1-3.3-1c-1.2,0-2.3,0.3-3.3,1.1c-0.7,0.5-1.4,0.7-2.3,0.7h-7.5c-2.2,0-4-1.8-4-4c0-2.2,1.8-4,4-4h7.5
		c0.8,0,1.6,0.2,2.3,0.7c2,1.4,4.6,1.4,6.5,0c0.7-0.5,1.4-0.7,2.3-0.7c0.4,0,0.8,0.3,0.8,0.8V18.7z"/>
</g>
</svg>
