<?xml version="1.0" encoding="utf-8"?>
<!-- Generator: Adobe Illustrator 25.2.1, SVG Export Plug-In . SVG Version: 6.00 Build 0)  -->
<svg version="1.1" id="Layer_1" xmlns="http://www.w3.org/2000/svg" xmlns:xlink="http://www.w3.org/1999/xlink" x="0px" y="0px"
	 viewBox="0 0 38.8 67.4" style="enable-background:new 0 0 38.8 67.4;" xml:space="preserve">
<style type="text/css">
	.st0{fill:#202944;}
	.st1{fill:#EF3829;}
</style>
<g>
	<a xlink:href="89.45542" >
		<polygon id="fullLogo_11_" class="st0" points="18.6,46.8 17.4,45.6 19.4,43.7 17.4,41.8 18.6,40.5 22,43.7 		"/>
	</a>
	<path id="fullLogo_10_" class="st1" d="M24.9,35.2h-11c-1.7,0-3.1-1.4-3.1-3.1v-0.9c0-1.7,1.4-3.1,3.1-3.1h11
		c1.7,0,3.1,1.4,3.1,3.1v0.9C28,33.9,26.6,35.2,24.9,35.2z M13.9,30c-0.7,0-1.3,0.6-1.3,1.3v0.9c0,0.7,0.6,1.3,1.3,1.3h11
		c0.7,0,1.3-0.6,1.3-1.3v-0.9c0-0.7-0.6-1.3-1.3-1.3H13.9z"/>
	<a xlink:href="66.35" >
		<path id="fullLogo_9_" class="st1" d="M24,23.7h-1.8c0-1.6-1.3-2.9-2.9-2.9s-2.9,1.3-2.9,2.9h-1.8c0-2.5,2.1-4.6,4.6-4.6
			S24,21.1,24,23.7z"/>
	</a>
	<path id="fullLogo_8_" class="st1" d="M19.4,17.6c-1.4,0-2.5-1.1-2.5-2.5c0-1.4,1.1-2.5,2.5-2.5s2.5,1.1,2.5,2.5
		C21.9,16.4,20.8,17.6,19.4,17.6z M19.4,14.3c-0.4,0-0.8,0.3-0.8,0.8c0,0.4,0.3,0.8,0.8,0.8c0.4,0,0.8-0.3,0.8-0.8
		C20.1,14.6,19.8,14.3,19.4,14.3z"/>
	<path id="fullLogo_7_" class="st0" d="M19.4,62.7c-2,0-3.7-1.6-3.7-3.7s1.6-3.7,3.7-3.7c2,0,3.7,1.6,3.7,3.7S21.4,62.7,19.4,62.7z
		 M19.4,57.1c-1.1,0-1.9,0.9-1.9,1.9s0.9,1.9,1.9,1.9c1.1,0,1.9-0.9,1.9-1.9S20.4,57.1,19.4,57.1z"/>
	<path id="fullLogo_6_" class="st0" d="M36.3,0H2.5C1.1,0,0,1.1,0,2.5v62.4c0,1.4,1.1,2.5,2.5,2.5h33.8c1.4,0,2.5-1.1,2.5-2.5V2.5
		C38.8,1.1,37.7,0,36.3,0z M2.5,1.8h33.8c0.4,0,0.8,0.3,0.8,0.8V5H1.8V2.5C1.8,2.1,2.1,1.8,2.5,1.8z M37,6.7v44.5H1.8V6.7H37z
		 M36.3,65.6H2.5c-0.4,0-0.8-0.3-0.8-0.8V53H37v11.9C37,65.3,36.7,65.6,36.3,65.6z"/>
</g>
</svg>
